<svg version="1.1" xmlns="http://www.w3.org/2000/svg" xmlns:xlink="http://www.w3.org/1999/xlink" width="151.36118" height="136" viewBox="0,0,151.36118,136"><g transform="translate(-164.5,-112)"><g data-paper-data="{&quot;isPaintingLayer&quot;:true}" fill-rule="nonzero" stroke-width="2" stroke-linejoin="miter" stroke-miterlimit="10" stroke-dasharray="" stroke-dashoffset="0" style="mix-blend-mode: normal"><path d="M306.5,180c0,37.00308 -31.56393,67 -70.5,67c-38.93607,0 -70.5,-29.99692 -70.5,-67c0,-37.00308 31.56393,-67 70.5,-67c38.93607,0 70.5,29.99692 70.5,67z" fill="#000000" stroke="#000000" stroke-linecap="butt"/><path d="M209.5,230l13,-15l15,-9l22,-3l29,1l25,10" data-paper-data="{&quot;index&quot;:null}" fill="none" stroke="#ffffff" stroke-linecap="round"/><path d="M230.5,158l9,-21l27,3l-4,30z" fill="none" stroke="#ffffff" stroke-linecap="round"/><path d="M303.5,135l11,29l-33,6l-2,-28z" fill="none" stroke="#ffffff" stroke-linecap="round"/><path d="M261.5,188h21" fill="none" stroke="#ffffff" stroke-linecap="round"/></g></g></svg>