<svg version="1.1" xmlns="http://www.w3.org/2000/svg" xmlns:xlink="http://www.w3.org/1999/xlink" width="342" height="257" viewBox="0,0,342,257"><g transform="translate(-88.5,-41)"><g data-paper-data="{&quot;isPaintingLayer&quot;:true}" fill-rule="nonzero" stroke-linejoin="miter" stroke-miterlimit="10" stroke-dasharray="" stroke-dashoffset="0" style="mix-blend-mode: normal"><path d="M342.5,185c0,56.88533 -46.78624,103 -104.5,103c-57.71376,0 -104.5,-46.11467 -104.5,-103c0,-56.88533 46.78624,-103 104.5,-103c57.71376,0 104.5,46.11467 104.5,103z" fill="#000000" stroke="none" stroke-width="0" stroke-linecap="butt"/><path d="M352.5,208l-10,15l-25,19l-30,6h-27l-29,-8l-14,-9l-17,-20l-14,-23" fill="none" stroke="#ffffff" stroke-width="5" stroke-linecap="round"/><path d="M284.5,145v35h-34l3,-35z" fill="none" stroke="#ffffff" stroke-width="5" stroke-linecap="round"/><path d="M345.5,151v33h-33l1,-34z" fill="none" stroke="#ffffff" stroke-width="5" stroke-linecap="round"/><path d="M307.5,207l-26,-2" fill="none" stroke="#ffffff" stroke-width="5" stroke-linecap="round"/><path d="M164.5,81c0,22.09139 -17.01318,40 -38,40c-20.98682,0 -38,-17.90861 -38,-40c0,-22.09139 17.01318,-40 38,-40c20.98682,0 38,17.90861 38,40z" fill="#000000" stroke="none" stroke-width="0" stroke-linecap="butt"/><path d="M430.5,258c0,22.09139 -17.01318,40 -38,40c-20.98682,0 -38,-17.90861 -38,-40c0,-22.09139 17.01318,-40 38,-40c20.98682,0 38,17.90861 38,40z" fill="#000000" stroke="none" stroke-width="0" stroke-linecap="butt"/></g></g></svg>