<svg version="1.1" xmlns="http://www.w3.org/2000/svg" xmlns:xlink="http://www.w3.org/1999/xlink" width="124" height="161" viewBox="0,0,124,161"><g transform="translate(-178,-99.5)"><g data-paper-data="{&quot;isPaintingLayer&quot;:true}" fill-rule="nonzero" stroke-linecap="butt" stroke-linejoin="miter" stroke-miterlimit="10" stroke-dasharray="" stroke-dashoffset="0" style="mix-blend-mode: normal"><path d="M179,259.5v-159h122v159z" fill="#000000" stroke="#000000" stroke-width="2"/><path d="M269.5,144.5c0,14.08326 -12.98374,25.5 -29,25.5c-16.01626,0 -29,-11.41674 -29,-25.5c0,-14.08326 12.98374,-25.5 29,-25.5c16.01626,0 29,11.41674 29,25.5z" fill="none" stroke="#ffffff" stroke-width="10"/><path d="M275.5,201.5c0,17.39697 -15.22232,31.5 -34,31.5c-18.77768,0 -34,-14.10303 -34,-31.5c0,-17.39697 15.22232,-31.5 34,-31.5c18.77768,0 34,14.10303 34,31.5z" fill="none" stroke="#ffffff" stroke-width="10"/></g></g></svg>
