<svg version="1.1" xmlns="http://www.w3.org/2000/svg" xmlns:xlink="http://www.w3.org/1999/xlink" width="487.98799" height="370.87087" viewBox="0,0,487.98799,370.87087"><g transform="translate(3.99399,5.43543)"><g data-paper-data="{&quot;isPaintingLayer&quot;:true}" fill-rule="nonzero" stroke="none" stroke-linecap="butt" stroke-linejoin="miter" stroke-miterlimit="10" stroke-dasharray="" stroke-dashoffset="0" style="mix-blend-mode: normal"><path d="M-3.99399,365.43544v-370.87087h487.98799v370.87087z" fill="#000000" stroke-width="0"/><text transform="translate(102.13033,80.52522) scale(1.34507,1.34507)" font-size="40" xml:space="preserve" fill="#ffffff" fill-rule="nonzero" stroke="none" stroke-width="1" stroke-linecap="butt" stroke-linejoin="miter" stroke-miterlimit="10" stroke-dasharray="" stroke-dashoffset="0" font-family="Pixel" font-weight="normal" text-anchor="start" style="mix-blend-mode: normal"><tspan x="0" dy="0">Made With</tspan></text><path d="M367.67038,287.87345c-3.76653,0.47082 -6.12061,0.47082 -7.06224,0.94163c-1.88326,0.94163 -6.12061,1.88326 -11.29959,1.88326c-6.59143,0 -12.71204,-2.35408 -17.89101,-6.12061h-3.76653c-1.41245,0 -2.35408,0 -3.76653,-0.47082c-5.17898,1.88326 -9.88714,1.88326 -12.71204,1.88326h-0.94163c-6.59143,0.47082 -13.18285,-0.94163 -18.83265,-3.76653c-2.8249,0.94163 -5.17898,1.41245 -8.00387,1.41245l-17.4202,0.47082c-8.00387,0 -15.06612,-2.8249 -20.71591,-8.00387c-2.35408,0 -4.70816,-0.47082 -6.59143,-0.94163c-2.8249,3.29571 -6.59143,6.12061 -11.29959,8.47469c-8.94551,4.23735 -18.83265,4.70816 -28.24897,0.94163c-0.94163,-0.47082 -2.35408,-0.94163 -3.29571,-1.41245l-10.82877,1.41245h-3.29571c-1.41245,0.47082 -2.35408,1.41245 -3.29571,1.88326c-7.06224,3.29571 -13.65367,3.29571 -16.47857,3.29571h-2.35408c-8.00387,0 -16.00775,-2.35408 -22.12836,-6.59143c-1.88326,0.47082 -4.23735,0.94163 -6.12061,0.94163c-4.23735,2.8249 -9.41632,4.70816 -15.06612,5.17898h-1.88326c-15.53693,0 -28.24897,-11.7704 -29.66142,-27.30734v-0.47082c0,-2.35408 -0.47082,-7.53306 0,-13.18285c0,-2.8249 0.47082,-7.06224 0.47082,-8.00387c0,-3.76653 0.94163,-7.53306 2.35408,-11.29959c-0.94163,-3.76653 -0.47082,-7.53306 0,-11.29959v-1.41245c0.47082,-3.29571 1.41245,-9.88714 4.70816,-16.47857c6.12061,-11.29959 17.4202,-18.36183 30.13223,-18.36183c4.23735,-2.35408 8.47469,-3.29571 13.18285,-3.29571h1.41245c9.41632,0.47082 17.89101,5.17898 23.06999,12.71204c4.23735,-3.76653 9.41632,-6.12061 15.06612,-7.06224c11.29959,-1.41245 20.71591,-1.88326 28.71979,-0.47082c4.23735,-3.76653 9.88714,-6.59143 15.53693,-7.06224l12.24122,-1.88326h3.76653c7.06224,0 14.12448,2.8249 19.77428,7.53306h0.94163l17.89101,-0.47082c7.53306,0 14.12448,-0.47082 15.53693,-0.47082h2.35408c6.59143,0 13.65367,2.35408 18.83265,6.59143c5.17898,-3.76653 11.29959,-5.64979 17.89101,-5.64979h6.12061c4.70816,-2.8249 9.88714,-4.70816 15.53693,-4.70816l15.06612,-0.47082h0.47082c16.00775,0 29.1906,13.18285 29.66142,29.1906c0,7.53306 -2.35408,14.12448 -7.06224,19.77428v13.65367c4.23735,4.70816 6.59143,10.82877 7.06224,17.4202c0.94163,16.00775 -11.29959,29.66142 -27.77815,31.07387z" fill="#ffffff" stroke-width="1"/><path d="M366.72874,270.92407c-6.12061,0.47082 -9.88714,0.94163 -10.82877,1.41245l-0.47082,0.47082c-1.41245,0.47082 -3.29571,1.41245 -5.64979,1.41245c-2.8249,0 -6.12061,-0.94163 -8.47469,-3.29571c-0.94163,-0.94163 -1.88326,-1.88326 -2.35408,-2.8249h-10.82877c-1.88326,0 -3.76653,-0.47082 -5.17898,-1.41245c-0.47082,0.47082 -1.41245,0.47082 -1.88326,0.94163c-3.76653,1.88326 -7.06224,1.88326 -9.41632,1.88326h-2.35408c-7.06224,0 -12.71204,-2.35408 -16.47857,-6.59143c-2.35408,2.35408 -5.64979,3.76653 -8.94551,3.76653l-17.4202,0.47082c-6.12061,0 -11.7704,-4.70816 -12.71204,-10.35796c-2.35408,1.41245 -4.70816,2.35408 -7.53306,2.35408c-2.8249,0 -5.64979,-0.94163 -8.00387,-2.35408c-0.47082,-0.47082 -0.94163,-0.94163 -1.41245,-0.94163c-1.41245,0.94163 -3.29571,0.94163 -5.17898,0.94163h-1.41245c-1.88326,5.64979 -5.17898,9.41632 -10.35796,11.7704c-2.35408,0.94163 -5.17898,1.88326 -7.53306,1.88326c-2.35408,0 -5.17898,-0.47082 -7.53306,-1.41245c-2.35408,-0.94163 -4.23735,-2.35408 -5.64979,-3.76653c-0.94163,0.47082 -1.88326,0.47082 -2.8249,0.94163l-13.65367,1.88326h-1.88326c-1.41245,0 -2.35408,0 -3.76653,-0.47082c-1.88326,1.88326 -4.23735,2.8249 -6.12061,3.76653c-3.76653,1.88326 -7.06224,1.88326 -9.41632,1.88326h-2.35408c-8.47469,0 -15.06612,-3.76653 -18.83265,-8.94551c-3.76653,2.35408 -8.47469,3.76653 -12.71204,3.76653h-2.8249c0,0.47082 -0.47082,0.47082 -0.47082,0.94163c-2.35408,2.35408 -5.64979,4.23735 -8.94551,4.23735h-0.94163c-6.59143,0 -12.24122,-5.17898 -12.71204,-12.24122v-0.47082c0,-2.35408 -0.47082,-6.59143 0,-11.29959c0,-3.29571 0.47082,-8.47469 0.47082,-8.47469c0,-3.29571 1.41245,-6.12061 3.29571,-8.47469c-1.88326,-3.76653 -2.35408,-8.00387 -1.41245,-12.71204v-0.94163c0.47082,-2.8249 0.94163,-7.06224 2.8249,-11.29959c3.29571,-6.12061 9.41632,-9.41632 16.47857,-9.41632h3.29571c2.35408,-1.88326 5.17898,-3.29571 8.47469,-3.29571c7.06224,0 12.71204,6.12061 12.71204,13.18285v5.17898c2.35408,-0.94163 5.17898,-1.41245 8.00387,-1.41245c1.41245,0 2.35408,0 3.76653,0.47082c1.88326,-2.35408 4.70816,-3.76653 7.53306,-4.23735c0.47082,-0.94163 0.94163,-1.41245 1.41245,-2.35408c1.88326,-2.8249 5.17898,-4.70816 8.47469,-5.17898c2.8249,-0.47082 8.47469,-0.94163 15.06612,-0.94163c7.53306,0 13.65367,0.94163 18.36183,3.29571c1.41245,-5.17898 5.17898,-8.94551 10.82877,-9.88714l12.24122,-1.88326h1.88326c3.76653,0 7.06224,1.41245 9.41632,4.23735c0.94163,0.94163 2.35408,2.8249 2.8249,4.23735l0.47082,1.41245c2.35408,-1.41245 4.70816,-2.35408 7.53306,-2.35408l18.36183,-0.47082c8.94551,0 16.94938,-0.47082 16.94938,-0.94163h0.94163c3.29571,0 7.06224,1.41245 9.41632,3.76653c1.88326,1.88326 3.29571,4.23735 3.76653,7.06224h0.94163c1.41245,0 2.35408,0 3.76653,0.47082c1.88326,-2.35408 4.70816,-3.76653 7.53306,-4.23735c2.35408,-3.29571 6.59143,-6.12061 11.29959,-6.12061h12.24122c2.35408,-2.8249 5.64979,-4.70816 9.88714,-4.70816h15.06612c7.06224,0 12.71204,5.64979 13.18285,12.71204c0,5.17898 -2.8249,9.88714 -7.06224,11.7704v28.71979c3.76653,1.88326 6.59143,6.12061 7.06224,10.82877c0.47082,7.06224 -5.17898,13.18285 -12.24122,13.65367z" fill="#f9a83a" stroke-width="1"/><path d="M242.43328,229.96306l-9.41632,1.41245l3.29571,-16.94938z" fill="#f9a83a" stroke-width="1"/><path d="M123.7876,230.9047c5.64979,0.94163 17.4202,2.8249 17.4202,14.5953c0,3.29571 -1.88326,7.06224 -4.70816,9.41632c-3.29571,2.8249 -7.53306,4.23735 -11.7704,3.29571c-3.29571,-0.47082 -6.12061,-1.88326 -8.00387,-3.29571v5.17898c0,1.41245 -1.41245,2.8249 -2.8249,2.8249c-1.41245,0 -2.8249,-1.41245 -2.8249,-2.8249c0,-0.47082 -0.47082,-4.70816 0,-10.35796c0.47082,-3.29571 0.47082,-8.94551 0.47082,-8.94551c0,-1.41245 1.41245,-2.8249 2.8249,-2.8249c1.41245,0 2.8249,1.41245 2.8249,2.8249v0.94163c0,1.41245 0.47082,3.76653 0.94163,5.64979c0.94163,1.88326 3.76653,3.29571 4.70816,3.76653c0.94163,0 1.41245,0.47082 2.35408,0.47082c2.8249,0.47082 5.64979,0 7.53306,-1.88326c1.88326,-1.41245 2.8249,-3.29571 2.8249,-5.17898c0,-4.70816 -5.17898,-6.12061 -12.71204,-7.53306c-7.06224,-1.41245 -9.88714,-7.06224 -8.94551,-16.00775v-0.94163c0.47082,-4.70816 1.41245,-12.71204 10.35796,-11.29959c3.29571,0 6.12061,2.35408 8.47469,4.70816v-5.17898c0,-1.41245 1.41245,-2.8249 2.8249,-2.8249c1.41245,0 2.8249,1.41245 2.8249,2.8249c0,0.47082 -0.94163,18.36183 -0.94163,18.36183c-0.47082,1.41245 -1.88326,2.8249 -3.29571,2.35408c-1.41245,-0.47082 -2.35408,-1.41245 -2.35408,-2.35408v-1.88326c-0.47082,-1.41245 -0.47082,-2.8249 -1.41245,-4.70816c-0.94163,-2.8249 -2.8249,-4.23735 -3.76653,-5.17898c-0.94163,-0.94163 -1.88326,-1.41245 -2.8249,-1.41245c-2.8249,0 -3.29571,1.41245 -4.23735,7.06224v0.94163c-0.94163,6.59143 0.94163,8.94551 4.23735,9.41632M202.88472,222.90082c1.41245,-1.88326 2.35408,-3.76653 2.35408,-4.70816v-0.94163c-1.41245,-2.35408 -8.00387,-2.8249 -15.53693,-2.8249v13.18285c2.8249,-0.47082 5.64979,-0.94163 7.53306,-1.88326l1.41245,-0.47082c0.47082,0 1.88326,-0.47082 2.35408,-0.94163c0.94163,-0.47082 1.41245,-0.94163 1.88326,-1.41245M219.36328,248.32489c1.41245,0.47082 2.35408,1.88326 0.47082,2.8249c-0.94163,4.23735 -2.8249,5.64979 -5.17898,7.06224c-2.8249,1.41245 -5.17898,0.47082 -7.06224,0c-2.35408,-0.94163 -3.76653,-3.29571 -4.23735,-4.23735c-0.94163,-2.35408 -1.41245,-8.00387 -1.41245,-9.41632c-0.47082,-7.06224 -1.41245,-9.88714 -2.35408,-11.29959c-0.47082,-0.94163 -1.41245,-1.41245 -2.35408,-1.41245h-0.94163c-2.35408,0.94163 -4.70816,1.41245 -7.53306,1.88326v16.47857l4.23735,-0.47082c1.41245,-0.47082 3.29571,0.94163 3.29571,2.35408c0.47082,1.41245 -0.94163,3.29571 -2.35408,3.29571l-13.65367,1.88326c-1.41245,0.47082 -3.29571,-0.94163 -3.29571,-2.35408c-0.47082,-1.41245 0.94163,-3.29571 2.35408,-3.29571l3.76653,-0.47082v-16.47857h-1.41245c-1.41245,0 -2.8249,-1.41245 -2.8249,-2.8249c0,-1.41245 1.41245,-2.8249 2.8249,-2.8249h1.41245v-13.18285c-1.41245,0 -2.8249,0.47082 -4.23735,0.47082c-1.41245,0.47082 -3.29571,-0.94163 -3.29571,-2.35408c-0.47082,-1.41245 0.94163,-3.29571 2.35408,-3.29571c6.59143,-0.94163 26.83652,-3.29571 31.54468,4.70816c1.88326,3.29571 0.94163,7.06224 -2.35408,11.7704c0,0 -1.41245,1.41245 -2.8249,2.35408c2.35408,2.35408 4.23735,7.06224 4.23735,15.53693c0,2.35408 0.47082,6.12061 0.94163,7.06224c0.47082,0.47082 0.94163,1.41245 0.94163,1.41245c1.41245,0.47082 2.35408,0.94163 2.8249,0.47082c0.47082,-0.47082 1.41245,-0.47082 2.35408,-3.76653c0.47082,-1.41245 2.35408,-2.35408 3.76653,-1.88326M322.00121,239.37939c1.41245,0 2.8249,0.94163 2.8249,1.88326v4.70816c-0.47082,0.94163 -0.94163,4.23735 -1.88326,6.12061c-0.94163,1.41245 -1.41245,2.35408 -2.35408,3.29571c-1.41245,1.41245 -2.8249,2.35408 -4.23735,2.8249c-1.88326,0.94163 -3.76653,0.94163 -5.64979,0.94163h-1.41245c-10.35796,0 -13.65367,-8.47469 -14.12448,-12.71204v-13.18285c0.47082,-7.06224 2.8249,-11.29959 6.12061,-13.65367c4.23735,-2.8249 9.88714,-0.47082 11.29959,0.47082c1.41245,0.94163 2.8249,1.41245 3.76653,2.35408v-5.17898c0,-1.41245 1.41245,-2.8249 2.8249,-2.8249c1.41245,0 2.8249,1.41245 2.8249,2.8249v12.71204c0,1.41245 -0.47082,2.35408 -1.88326,2.8249c-1.41245,0 -2.8249,-0.47082 -3.29571,-1.41245c-0.47082,0 -2.8249,-4.23735 -6.59143,-5.64979c-3.29571,-0.94163 -5.17898,-1.41245 -6.59143,-0.47082c-1.88326,1.41245 -2.8249,4.70816 -3.29571,9.41632v12.24122c0,1.41245 0.94163,7.53306 8.47469,7.06224h1.88326c1.88326,0 2.35408,0 3.29571,-0.47082c0.94163,-0.47082 1.88326,-0.94163 2.35408,-1.41245c0.94163,-0.94163 1.41245,-1.41245 1.88326,-2.35408c0.47082,-0.47082 0.94163,-2.35408 0.94163,-3.76653v-3.76653c0,-1.41245 1.41245,-2.8249 2.8249,-2.8249M368.61201,258.21203c0,1.41245 -0.94163,2.8249 -2.35408,3.76653c-6.59143,0.47082 -12.24122,0.94163 -13.65367,1.88326c-1.88326,0.47082 -3.29571,0.94163 -4.23735,0c-1.41245,-0.94163 -1.41245,-2.8249 -0.47082,-3.76653c1.41245,-1.88326 4.23735,-1.88326 8.00387,-2.8249v-21.65754l-16.94938,2.8249v14.5953h4.70816c1.41245,0 2.8249,1.41245 2.8249,2.8249c0,1.41245 -1.41245,2.8249 -2.8249,2.8249l-15.53693,-0.47082c-1.41245,0 -2.8249,-1.41245 -2.8249,-2.8249c0,-1.41245 1.41245,-2.8249 2.8249,-2.8249h4.70816v-38.13611h-4.70816c-1.41245,0 -2.8249,-1.41245 -2.8249,-2.8249c0,-1.41245 1.41245,-2.8249 2.8249,-2.8249h15.06612c1.41245,0 2.8249,1.41245 2.8249,2.8249c0,1.41245 -1.41245,2.8249 -2.8249,2.8249h-4.70816v17.89101l16.94938,-2.8249v-19.77428h-4.70816c-1.41245,0 -2.8249,-1.41245 -2.8249,-2.8249c0,-1.41245 1.41245,-2.8249 2.8249,-2.8249l15.06612,-0.47082c1.41245,0 2.8249,1.41245 2.8249,2.8249c0,1.41245 -1.41245,2.8249 -2.8249,2.8249h-4.23735c0.47082,32.0155 0.47082,41.90264 0.47082,46.6108c1.41245,-0.47082 2.8249,-0.47082 3.76653,-0.47082c1.41245,0 2.8249,1.41245 2.8249,2.8249" fill="#ffffff" stroke-width="1"/><path d="M242.43328,229.96306l-6.12061,-15.53693l-3.29571,16.94938zM257.97021,236.08367c1.41245,-0.47082 2.8249,0.47082 3.29571,1.41245c0.47082,1.41245 -0.47082,3.29571 -1.88326,3.76653c-5.17898,1.88326 -10.35796,4.23735 -11.7704,6.12061c-0.94163,0.94163 -2.8249,1.41245 -4.23735,0.47082c-0.94163,-0.94163 -1.41245,-2.35408 -0.47082,-3.76653c1.41245,-1.41245 2.35408,-1.88326 4.70816,-3.29571l-2.8249,-7.06224l-13.18285,2.35408l-0.47082,4.23735c1.88326,0 2.8249,1.41245 2.8249,2.8249c0,1.88326 -1.41245,2.8249 -2.8249,2.8249l-14.12448,-0.47082c-1.88326,0 -2.8249,-1.41245 -2.8249,-2.8249c0,-1.88326 1.41245,-2.8249 2.8249,-2.8249l8.47469,0.47082c1.41245,-6.59143 5.64979,-27.77815 6.59143,-32.95713c-3.76653,0.47082 -8.47469,0.94163 -8.47469,0.94163c-1.88326,0.47082 -3.29571,-0.94163 -3.29571,-2.35408c-0.47082,-1.88326 0.94163,-3.29571 2.35408,-3.29571l12.24122,-1.41245c0.94163,0 1.88326,0.47082 2.35408,0.94163c0.47082,0 0.94163,0.94163 0.94163,1.41245l10.82877,25.89489l3.76653,8.94551c2.8249,-1.41245 4.23735,-1.88326 5.17898,-2.35408" fill="#ffffff" stroke-width="1"/><path d="M291.86897,207.36389c0.94163,0 1.88326,0.47082 1.88326,1.41245c0.94163,0.94163 0.94163,1.41245 0.94163,2.35408c-0.47082,3.76653 -0.47082,10.35796 -0.47082,10.35796c0,0.94163 -0.47082,2.35408 -1.41245,2.8249c-1.41245,0.94163 -2.8249,0.47082 -3.76653,-0.94163c0,-0.47082 -0.47082,-1.41245 -0.47082,-4.23735v-5.64979c-2.8249,0 -7.06224,0.47082 -11.7704,0.47082v37.19448h5.64979c1.41245,0 2.8249,1.41245 2.8249,2.8249c0,1.41245 -1.41245,2.8249 -2.8249,2.8249l-17.4202,0.47082c-1.41245,0 -2.8249,-1.41245 -2.8249,-2.8249c0,-1.41245 1.41245,-2.8249 2.8249,-2.8249h6.12061v-37.19448h-12.24122c0.94163,3.76653 1.88326,11.29959 1.88326,11.29959c0,1.41245 -0.94163,2.8249 -2.35408,2.8249c-1.41245,0.47082 -3.29571,-0.94163 -3.29571,-2.35408l-2.35408,-14.12448c-0.47082,-0.94163 0,-1.88326 0.47082,-2.35408c0.94163,-0.47082 1.41245,-0.94163 2.35408,-0.94163l18.36183,-0.47082c9.41632,-0.47082 17.89101,-0.94163 17.89101,-0.94163M171.81085,242.20428c1.41245,0 2.8249,1.41245 2.8249,2.35408v4.70816c-0.47082,0.94163 -0.94163,4.23735 -1.88326,6.12061c-0.94163,1.41245 -1.41245,2.35408 -2.35408,3.29571c-1.41245,1.41245 -2.8249,2.35408 -4.23735,2.8249c-1.88326,0.94163 -3.76653,0.94163 -5.64979,0.94163h-1.41245c-10.82877,0 -14.12448,-8.47469 -14.5953,-12.71204v-13.18285c0.47082,-7.06224 2.8249,-11.29959 6.12061,-13.65367c4.70816,-2.35408 9.88714,-0.47082 11.7704,0.47082c1.41245,0.47082 2.8249,1.41245 3.76653,2.35408v-5.17898c0,-1.41245 1.41245,-2.8249 2.8249,-2.8249c1.41245,0 2.8249,1.41245 2.8249,2.8249v12.71204c0,1.41245 -0.47082,2.35408 -1.88326,2.8249c-1.41245,0 -2.8249,-0.47082 -3.29571,-1.41245c0,0 -2.8249,-4.23735 -6.59143,-5.64979c-3.29571,-0.94163 -5.17898,-1.41245 -6.59143,-0.47082c-1.88326,1.41245 -2.8249,4.70816 -3.29571,9.41632v12.24122c0,1.41245 0.94163,7.06224 8.47469,7.06224h1.88326c1.88326,0 2.35408,0 3.29571,-0.47082c0.94163,-0.47082 1.88326,-0.94163 2.35408,-1.41245c0.94163,-0.94163 1.41245,-1.41245 1.88326,-2.35408c0.47082,-0.94163 0.94163,-2.8249 0.94163,-3.76653v-4.23735c0,-1.41245 1.41245,-2.8249 2.8249,-2.8249" fill="#ffffff" stroke-width="1"/></g></g></svg>