<svg version="1.1" xmlns="http://www.w3.org/2000/svg" xmlns:xlink="http://www.w3.org/1999/xlink" width="377" height="206" viewBox="0,0,377,206"><g transform="translate(-51.5,-82)"><g data-paper-data="{&quot;isPaintingLayer&quot;:true}" fill-rule="nonzero" stroke-linejoin="miter" stroke-miterlimit="10" stroke-dasharray="" stroke-dashoffset="0" style="mix-blend-mode: normal"><path d="M342.5,185c0,56.88533 -46.78624,103 -104.5,103c-57.71376,0 -104.5,-46.11467 -104.5,-103c0,-56.88533 46.78624,-103 104.5,-103c57.71376,0 104.5,46.11467 104.5,103z" fill="#000000" stroke="none" stroke-width="0" stroke-linecap="butt"/><path d="M171.5,188l14,23l17,20l14,9l29,8h27l30,-6l25,-19l10,-15" fill="none" stroke="#ffffff" stroke-width="5" stroke-linecap="round"/><path d="M233.5,145l-3,35h34v-35z" fill="none" stroke="#ffffff" stroke-width="5" stroke-linecap="round"/><path d="M299.5,148l-1,34h33v-33z" fill="none" stroke="#ffffff" stroke-width="5" stroke-linecap="round"/><path d="M269.5,205l26,2" fill="none" stroke="#ffffff" stroke-width="5" stroke-linecap="round"/><path d="M127.5,185c0,22.09139 -17.01318,40 -38,40c-20.98682,0 -38,-17.90861 -38,-40c0,-22.09139 17.01318,-40 38,-40c20.98682,0 38,17.90861 38,40z" fill="#000000" stroke="none" stroke-width="0" stroke-linecap="butt"/><path d="M428.5,192c0,22.09139 -17.01318,40 -38,40c-20.98682,0 -38,-17.90861 -38,-40c0,-22.09139 17.01318,-40 38,-40c20.98682,0 38,17.90861 38,40z" fill="#000000" stroke="none" stroke-width="0" stroke-linecap="butt"/></g></g></svg>